# xmcd
#
# Track frame offsets:
#	150
#	11839
#	25550
#	39034
#	53811
#	64797
#	78800
#	92307
#	105473
#	119584
#	130284
#	154353
#	169792
#	243197
#
# Disc length: 3546
#
# Revision: 3
# Processed by: cddbd v1.5.1PL0 Copyright (c) Steve Scherf et al.
# Submitted via: Gronk 1.4
# Normalized: r2:TRMNUM
#
DISCID=a00dd80e
DTITLE=Etta James - At Last
DYEAR=1900
DGENRE=blues
TTITLE0=Anything to Say Your Mine.mp3
TTITLE1=My Dearest Darling.mp3
TTITLE2=Trust in Me.mp3
TTITLE3=Sunday Kind of Love.mp3
TTITLE4=Tough Mary.mp3
TTITLE5=I Just Want to Make Love to You.mp3
TTITLE6=At Last.mp3
TTITLE7=All I Could Do Was Cry.mp3
TTITLE8=Stormy Weather.mp3
TTITLE9=Girl of My Dreams.mp3
TTITLE10=Sophisticated Lady.mp3
TTITLE11=Chelsea Bridge.mp3
TTITLE12=Potrait of Ella Fitzgerald.mp3
TTITLE13=The E and D Blues (E 4 Ella D 4 Duke).mp3
EXTD=
EXTT0=
EXTT1=
EXTT2=
EXTT3=
EXTT4=
EXTT5=
EXTT6=
EXTT7=
EXTT8=
EXTT9=
EXTT10=
EXTT11=
EXTT12=
EXTT13=
PLAYORDER=
